<svg xmlns="http://www.w3.org/2000/svg" width="48" height="48" viewBox="0 0 48 48" shape-rendering="crispEdges">
  <title>Design chibi idle frame 0</title>
  <rect x="12" y="44" width="24" height="2" fill="#000000" opacity="0.18"/>
  <rect x="17" y="36" width="5" height="8" fill="#2C3E50"/>
  <rect x="26" y="36" width="5" height="8" fill="#2C3E50"/>
  <rect x="14" y="25" width="20" height="11" fill="#F39C12"/>
  <rect x="14" y="25" width="20" height="2" fill="#E67E22"/>
  <rect x="10" y="27" width="5" height="8" fill="#F39C12"/>
  <rect x="33" y="27" width="5" height="8" fill="#F39C12"/>
  <rect x="10" y="35" width="5" height="2" fill="#F4C29A"/>
  <rect x="33" y="35" width="5" height="2" fill="#F4C29A"/>
  <rect x="15" y="13" width="18" height="12" fill="#F4C29A"/>
  <rect x="15" y="13" width="18" height="2" fill="#E0A97A"/>
  <rect x="15" y="12" width="18" height="3" fill="#D35400"/>
  <rect x="17" y="11" width="2" height="2" fill="#C0392B"/>
  <rect x="19" y="18" width="3" height="3" fill="#2C3E50"/>
  <rect x="26" y="18" width="3" height="3" fill="#2C3E50"/>
  <!-- pencil (domain accessory) -->
  <rect x="42" y="18" width="2" height="10" fill="#F4C29A"/>
  <rect x="40" y="16" width="6" height="2" fill="#2C3E50"/>
  <rect x="41" y="28" width="4" height="2" fill="#E74C3C"/>
  <!-- ruler -->
  <rect x="35" y="14" width="12" height="1" fill="#2C3E50"/>
  <rect x="35" y="17" width="1" height="5" fill="#2C3E50"/>
  <rect x="36" y="17" width="1" height="5" fill="#2C3E50"/>
  <rect x="37" y="17" width="1" height="5" fill="#2C3E50"/>
  <rect x="38" y="17" width="1" height="5" fill="#2C3E50"/>
  <rect x="39" y="17" width="1" height="5" fill="#2C3E50"/>
  <rect x="40" y="17" width="1" height="5" fill="#2C3E50"/>
  <!-- smile -->
  <rect x="22" y="22" width="4" height="1" fill="#C0392B"/>
</svg>