<svg xmlns="http://www.w3.org/2000/svg" width="48" height="48" viewBox="0 0 48 48" shape-rendering="crispEdges">
  <title>Dev chibi idle frame 1 (bob +2px)</title>
  <!-- same as frame 0 but whole figure shifted up 2px (bobbing) -->
  <rect x="12" y="46" width="24" height="2" fill="#000000" opacity="0.18"/>
  <rect x="17" y="38" width="5" height="8" fill="#2C3E50"/>
  <rect x="26" y="38" width="5" height="8" fill="#2C3E50"/>
  <rect x="14" y="27" width="20" height="11" fill="#4A90D9"/>
  <rect x="14" y="27" width="20" height="2" fill="#357ABD"/>
  <rect x="10" y="29" width="5" height="8" fill="#4A90D9"/>
  <rect x="33" y="29" width="5" height="8" fill="#4A90D9"/>
  <rect x="10" y="37" width="5" height="2" fill="#F4C29A"/>
  <rect x="33" y="37" width="5" height="2" fill="#F4C29A"/>
  <rect x="15" y="15" width="18" height="12" fill="#F4C29A"/>
  <rect x="15" y="15" width="18" height="2" fill="#E0A97A"/>
  <rect x="15" y="14" width="18" height="3" fill="#2C3E50"/>
  <rect x="15" y="14" width="3" height="2" fill="#1A252F"/>
  <rect x="19" y="20" width="3" height="3" fill="#2C3E50"/>
  <rect x="26" y="20" width="3" height="3" fill="#2C3E50"/>
  <rect x="18" y="19" width="5" height="5" fill="none" stroke="#2C3E50" stroke-width="1"/>
  <rect x="25" y="19" width="5" height="5" fill="none" stroke="#2C3E50" stroke-width="1"/>
  <rect x="23" y="21" width="2" height="1" fill="#2C3E50"/>
  <rect x="22" y="24" width="4" height="1" fill="#C0392B"/>
  <rect x="15" y="32" width="10" height="6" fill="#34495E"/>
  <rect x="15" y="32" width="10" height="1" fill="#2C3E50"/>
  <rect x="16" y="33" width="4" height="3" fill="#4A90D9" opacity="0.7"/>
  <rect x="13" y="14" width="22" height="2" fill="#2C3E50"/>
  <rect x="13" y="14" width="2" height="8" fill="#2C3E50"/>
  <rect x="33" y="14" width="2" height="8" fill="#2C3E50"/>
</svg>